<svg width="451" height="24" viewBox="0 0 451 24" fill="none" xmlns="http://www.w3.org/2000/svg">
<path d="M448 24C434.971 18.3251 402.558 13 374.83 13H290.14C261.409 13 239.861 7.70197 225.496 2.5V0C229.504 3.23153 237.689 5.99015 250.05 8.27586C262.411 10.4828 275.775 11.5862 290.14 11.5862H374.83C390.197 11.5862 405.064 12.7685 419.429 15.133C433.795 17.4975 444.318 20.4532 451 24H448Z" fill="#97CA3F"/>
<path d="M3 24C16.0291 18.3251 48.4417 13 76.1704 13H160.86C189.591 13 211.139 7.70197 225.504 2.5V0C221.495 3.23153 213.31 5.99015 200.949 8.27586C188.589 10.4828 175.225 11.5862 160.86 11.5862H76.1704C60.8027 11.5862 45.9361 12.7685 31.5706 15.133C17.2051 17.4975 6.68161 20.4532 0 24H3Z" fill="#97CA3F"/>
</svg>
