<svg width="148" height="148" viewBox="0 0 148 148" fill="none" xmlns="http://www.w3.org/2000/svg">
<circle cx="74" cy="74" r="71.7231" stroke="#97CA3F" stroke-width="4.55385"/>
<path d="M141.169 74C141.169 113.679 110.011 145.723 71.7231 145.723C33.4356 145.723 2.27692 113.679 2.27692 74C2.27692 34.3208 33.4356 2.27692 71.7231 2.27692C110.011 2.27692 141.169 34.3208 141.169 74Z" stroke="#97CA3F" stroke-width="4.55385"/>
<path fill-rule="evenodd" clip-rule="evenodd" d="M70.2327 39.6587C69.1021 39.064 66.9896 38.2455 65.3652 37.7725C57.2751 35.4176 48.3967 37.1538 41.8177 42.3773C39.273 44.3978 38.4346 45.3215 36.4091 48.3375C35.0004 50.435 34.4093 51.453 33.9465 52.5779C29.7406 62.803 31.9625 73.9445 39.7746 81.8041C41.3643 83.4034 45.7052 86.3127 47.7887 87.175C57.9921 91.3986 69.2584 89.2139 76.9607 81.5186C78.6114 79.8695 80.7493 76.832 81.7685 74.6876C82.773 72.5742 83.6431 69.8717 83.9532 67.9028C84.0755 67.1272 84.1938 66.4652 84.2163 66.4316C84.3168 66.2817 88.3009 67.0073 89.3041 67.3582C90.8075 67.8842 94.1167 69.9263 95.4044 71.1228C97.3855 72.9637 99.08 75.4128 100.046 77.831C100.284 78.4292 100.7 80.0491 100.968 81.431L101.456 83.9438L100.714 84.0697C100.305 84.1388 99.7604 84.31 99.5025 84.45C98.4925 84.9983 97.9272 86.5444 98.3398 87.6298C98.4686 87.9683 100.34 90.1555 103.173 93.2772C107.306 97.8319 107.867 98.3964 108.462 98.5985C109.185 98.844 110.245 98.7435 110.744 98.3822C110.956 98.2279 110.849 98.5222 110.409 99.3012C109.923 100.161 110.117 99.9223 111.183 98.3455C111.965 97.1895 112.438 96.4026 112.235 96.5969C111.959 96.8598 112.395 95.4834 113.941 91.21C115.083 88.0529 116.082 85.1251 116.161 84.7039C116.522 82.7736 115.047 81.369 112.99 81.6851L111.956 81.8438L111.276 78.8288C110.438 75.1156 109.575 72.7922 108.052 70.1437C105.944 66.478 103.575 63.8373 100.116 61.2968C96.2318 58.4442 92.5324 56.9234 87.7794 56.2252C86.6148 56.0541 85.1543 55.9048 84.5335 55.8935L83.4051 55.8726L82.7775 54.1284C80.802 48.6385 77.3606 44.2407 72.6185 41.1465C71.6072 40.4866 70.5335 39.8171 70.2327 39.6587ZM65.059 48.8971C61.7138 47.3485 58.5302 46.9444 55.1084 47.634C50.7214 48.5181 47.6018 50.598 45.1294 54.2871C42.6691 57.9581 41.8943 61.8081 42.7672 66.0238C43.4405 69.2753 44.5304 71.4011 46.7841 73.8577C47.9416 75.1196 50.8634 77.0784 52.4736 77.6722C56.6696 79.2195 61.0373 79.0652 64.9721 77.2307C69.2187 75.2508 72.5452 71.0469 73.5713 66.3633C74.6328 61.5186 73.1782 56.149 69.8155 52.4986C68.6406 51.2236 66.3697 49.504 65.059 48.8971ZM36.3398 48.3963C35.5629 49.5556 35.2678 50.0452 35.684 49.4841C36.1001 48.9228 36.7357 47.9745 37.0966 47.3763C37.4574 46.778 37.1168 47.2371 36.3398 48.3963Z" fill="white"/>
</svg>
