<svg width="148" height="148" viewBox="0 0 148 148" fill="none" xmlns="http://www.w3.org/2000/svg">
<circle cx="74" cy="74" r="71.7231" stroke="#97CA3F" stroke-width="4.55385"/>
<path d="M141.169 74C141.169 113.679 110.011 145.723 71.7231 145.723C33.4356 145.723 2.27692 113.679 2.27692 74C2.27692 34.3208 33.4356 2.27692 71.7231 2.27692C110.011 2.27692 141.169 34.3208 141.169 74Z" stroke="#97CA3F" stroke-width="4.55385"/>
<rect x="59.75" y="22.4961" width="7.27707" height="24.95" rx="3.24946" fill="#97CA3F"/>
<rect x="35.8396" y="34.9707" width="7.27707" height="24.95" rx="3.24946" fill="#97CA3F"/>
<rect x="83.6611" y="40.1689" width="7.27707" height="24.95" rx="3.24946" fill="#97CA3F"/>
<path fill-rule="evenodd" clip-rule="evenodd" d="M60.0818 114.493C58.9164 114.527 56.856 114.352 55.3344 114.089C47.7568 112.777 41.1726 107.794 37.8717 100.874C36.595 98.1969 36.2779 97.1035 35.8259 93.8185C35.5116 91.5338 35.4349 90.4622 35.5064 89.3543C36.1564 79.2839 42.4443 71.0388 52.0006 67.7255C53.9452 67.0513 58.6708 66.4058 60.725 66.5338C70.7845 67.1606 79.147 73.4681 82.3782 82.8655C83.0707 84.8794 83.6061 88.2272 83.5822 90.3941C83.5587 92.5297 83.1889 95.0944 82.654 96.8332C82.4434 97.5182 82.275 98.1085 82.28 98.145C82.3023 98.3082 85.86 99.3103 86.8233 99.4247C88.267 99.596 91.799 99.248 93.3345 98.7831C95.6969 98.0677 98.0681 96.7387 99.8293 95.1429C100.265 94.7481 101.255 93.5862 102.029 92.5607L103.436 90.696L102.878 90.2951C102.571 90.0748 102.192 89.7158 102.037 89.4977C101.429 88.6432 101.585 87.1488 102.358 86.4242C102.6 86.1983 105.011 85.1552 108.585 83.7309C113.8 81.6529 114.486 81.4149 115.055 81.4877C115.746 81.5761 116.576 82.0835 116.839 82.5795C116.952 82.7914 116.982 82.5071 116.934 81.6919C116.88 80.7922 116.943 81.0654 117.185 82.7859C117.363 84.0472 117.435 84.882 117.346 84.6411C117.226 84.3151 117.031 85.6185 116.586 89.7422C116.257 92.7888 115.902 95.5899 115.798 95.9669C115.321 97.6946 113.548 98.255 111.988 97.1712L111.204 96.6268L109.438 98.8263C107.262 101.535 105.624 103.095 103.313 104.656C100.115 106.816 97.114 108.032 93.2592 108.729C88.9307 109.511 85.2877 109.275 81.1104 107.942C80.0869 107.616 78.8295 107.153 78.3159 106.913L77.3823 106.478L76.1685 107.657C72.348 111.366 67.7633 113.593 62.6345 114.229C61.5407 114.365 60.392 114.484 60.0818 114.493ZM59.5427 104.844C56.1789 104.773 53.4064 103.828 50.877 101.891C47.6342 99.4074 45.9098 96.4515 45.3613 92.4354C44.8154 88.439 45.7233 84.9715 48.1289 81.8646C49.9844 79.4683 51.7302 78.1621 54.563 77.0512C56.0179 76.4804 59.1989 76.0454 60.7573 76.2039C64.8182 76.6171 68.3377 78.4944 70.8289 81.5759C73.5174 84.9017 74.56 89.6822 73.5239 93.934C72.4523 98.3321 69.1072 102.152 64.8865 103.797C63.4121 104.372 60.8607 104.872 59.5427 104.844ZM35.7927 93.7424C35.6203 92.4804 35.5746 91.9606 35.691 92.5876C35.8072 93.2146 35.9482 94.247 36.0044 94.8822C36.0604 95.5174 35.9651 95.0045 35.7927 93.7424Z" fill="white"/>
</svg>
