<svg width="148" height="148" viewBox="0 0 148 148" fill="none" xmlns="http://www.w3.org/2000/svg">
<circle cx="74" cy="74" r="71.7231" stroke="#97CA3F" stroke-width="4.55385"/>
<path d="M141.169 74C141.169 113.679 110.011 145.723 71.7231 145.723C33.4356 145.723 2.27692 113.679 2.27692 74C2.27692 34.3208 33.4356 2.27692 71.7231 2.27692C110.011 2.27692 141.169 34.3208 141.169 74Z" stroke="#97CA3F" stroke-width="4.55385"/>
<path fill-rule="evenodd" clip-rule="evenodd" d="M55.1829 24.3506V27.6536C55.1829 29.4693 56.6548 30.9413 58.4705 30.9413C60.2862 30.9413 61.7582 29.4693 61.7582 27.6536V24.3506V21.0477C61.7582 19.2319 60.2862 17.76 58.4705 17.76C56.6548 17.76 55.1829 19.2319 55.1829 21.0477V24.3506ZM68.3335 24.3506V27.6536C68.3335 29.4693 69.8054 30.9413 71.6212 30.9413C73.4369 30.9413 74.9088 29.4693 74.9088 27.6536V24.3506V21.0477C74.9088 19.2319 73.4369 17.76 71.6212 17.76C69.8054 17.76 68.3335 19.2319 68.3335 21.0477V24.3506ZM81.4841 24.3506V27.6536C81.4841 29.4693 82.9561 30.9413 84.7718 30.9413C86.5875 30.9413 88.0595 29.4693 88.0595 27.6536V24.3506V21.0477C88.0595 19.2319 86.5875 17.76 84.7718 17.76C82.9561 17.76 81.4841 19.2319 81.4841 21.0477V24.3506ZM68.5527 37.8735C64.6184 38.7204 60.7305 41.7806 58.9382 45.4406C57.7781 47.8097 57.2988 50.0277 57.4371 52.3861L57.4637 52.8395C57.5103 53.6343 57.0452 54.3704 56.3075 54.6697C50.444 57.048 45.5974 62.1294 43.4512 68.148C42.1094 71.9106 42.0342 72.8961 42.0331 86.687L42.0326 94.3081C42.0324 96.9238 44.1528 99.0444 46.7686 99.0444H48.6075H50.4469C53.0625 99.0444 55.1829 101.165 55.1829 103.78V114.642V125.504C55.1829 128.12 57.3032 130.24 59.9189 130.24H71.6212H83.3235C85.9391 130.24 88.0595 128.12 88.0595 125.504V114.642V103.78C88.0595 101.165 90.1798 99.0444 92.7955 99.0444H94.6457H96.4674C99.0943 99.0444 101.219 96.9065 101.203 94.2797L101.152 85.8082C101.063 71.2427 101.095 71.6157 99.6239 67.6899C97.5415 62.1331 92.5513 56.9435 87.2229 54.7936C86.3129 54.4264 85.7387 53.5194 85.7963 52.5398L85.805 52.3911C86.1971 45.7038 81.213 39.2523 74.5801 37.8612C72.6881 37.4644 70.4312 37.4691 68.5527 37.8735ZM69.4921 44.4281C67.2269 45.17 65.6354 46.5764 64.6296 48.7258C64.1553 49.7395 64.0595 50.2588 64.0595 51.8162C64.0595 53.4854 64.1369 53.8457 64.7741 55.1427C65.6054 56.8358 66.7938 57.9975 68.5264 58.8119C69.5545 59.295 70.0663 59.3908 71.6212 59.3908C73.176 59.3908 73.6878 59.295 74.7159 58.8119C76.4485 57.9975 77.6369 56.8358 78.4683 55.1427C79.1054 53.8457 79.1828 53.4854 79.1828 51.8162C79.1828 50.2527 79.0876 49.7408 78.6052 48.7096C77.3327 45.9896 74.9134 44.3385 71.9981 44.2005C71.0445 44.1552 70.0488 44.2458 69.4921 44.4281ZM58.3239 60.9209C54.764 62.5433 51.5831 65.7406 50.0322 69.2559C48.7724 72.1111 48.7581 72.2513 48.6652 82.7326L48.6082 89.1518C48.592 90.9706 50.062 92.4538 51.881 92.4538C53.7045 92.4538 55.1829 90.9754 55.1829 89.1519V82.5678V75.9695C55.1829 74.1538 56.6548 72.6819 58.4705 72.6819C60.2862 72.6819 61.7582 74.1538 61.7582 75.9695V98.1656V120.362C61.7582 122.177 63.2301 123.649 65.0458 123.649C66.8616 123.649 68.3335 122.177 68.3335 120.362V108.052V95.7414C68.3335 93.9257 69.8054 92.4538 71.6212 92.4538C73.4369 92.4538 74.9088 93.9257 74.9088 95.7414V108.052V120.362C74.9088 122.177 76.3808 123.649 78.1965 123.649C80.0122 123.649 81.4841 122.177 81.4841 120.362V98.1656V75.9695C81.4841 74.1538 82.9561 72.6819 84.7718 72.6819C86.5875 72.6819 88.0595 74.1538 88.0595 75.9695V82.5678V89.1519C88.0595 90.9754 89.5378 92.4538 91.3614 92.4538C93.1803 92.4538 94.6503 90.9706 94.6342 89.1518L94.5771 82.7326C94.5024 74.3012 94.4401 72.8365 94.1081 71.6933C93.1487 68.3912 90.9901 65.1035 88.489 63.1356C87.1137 62.0534 84.0746 60.3794 83.4852 60.3794C83.3156 60.3794 82.4139 61.1098 81.4817 62.0024C75.8044 67.4393 67.4379 67.4393 61.7606 62.0024C60.8284 61.1098 59.9287 60.3851 59.7613 60.3921C59.5938 60.3989 58.947 60.6371 58.3239 60.9209Z" fill="white"/>
<path fill-rule="evenodd" clip-rule="evenodd" d="M55.1826 24.3506V27.6536C55.1826 29.4693 56.6546 30.9413 58.4703 30.9413C60.286 30.9413 61.7579 29.4693 61.7579 27.6536V24.3506V21.0477C61.7579 19.2319 60.286 17.76 58.4703 17.76C56.6546 17.76 55.1826 19.2319 55.1826 21.0477V24.3506ZM68.3333 24.3506V27.6536C68.3333 29.4693 69.8052 30.9413 71.6209 30.9413C73.4366 30.9413 74.9086 29.4693 74.9086 27.6536V24.3506V21.0477C74.9086 19.2319 73.4366 17.76 71.6209 17.76C69.8052 17.76 68.3333 19.2319 68.3333 21.0477V24.3506ZM81.4839 24.3506V27.6536C81.4839 29.4693 82.9558 30.9413 84.7715 30.9413C86.5873 30.9413 88.0592 29.4693 88.0592 27.6536V24.3506V21.0477C88.0592 19.2319 86.5873 17.76 84.7715 17.76C82.9558 17.76 81.4839 19.2319 81.4839 21.0477V24.3506Z" fill="#97CA3F"/>
</svg>
