<svg width="125" height="125" viewBox="0 0 125 125" fill="none" xmlns="http://www.w3.org/2000/svg">
<circle cx="62.5" cy="62.5" r="60.5769" stroke="#97CA3F" stroke-width="3.84615"/>
<path d="M119.231 62.5C119.231 96.0128 92.9143 123.077 60.5769 123.077C28.2395 123.077 1.92308 96.0128 1.92308 62.5C1.92308 28.9872 28.2395 1.92308 60.5769 1.92308C92.9143 1.92308 119.231 28.9872 119.231 62.5Z" stroke="#97CA3F" stroke-width="3.84615"/>
<path d="M109.259 65.7074C109.259 66.6736 108.799 67.1566 107.878 67.1566H98.4239C98.0559 67.1566 97.8258 67.2257 97.7338 67.3637C97.6418 67.4557 97.5958 67.6397 97.5958 67.9158V77.0251C97.5958 77.8993 97.1127 78.3363 96.1466 78.3363H93.1101C92.144 78.3363 91.6609 77.8993 91.6609 77.0251V67.8467C91.6609 67.3867 91.3389 67.1566 90.6948 67.1566H81.7234C80.8033 67.1566 80.3432 66.6966 80.3432 65.7764V63.223C80.3432 62.3029 80.8033 61.8428 81.7234 61.8428H90.8328C91.3849 61.8428 91.6609 61.5898 91.6609 61.0837V51.9053C91.6609 51.0312 92.121 50.5941 93.0411 50.5941H96.1466C97.1127 50.5941 97.5958 51.0312 97.5958 51.9053V60.8767C97.5958 61.2447 97.6418 61.4978 97.7338 61.6358C97.8258 61.7738 98.0559 61.8428 98.4239 61.8428H107.878C108.799 61.8428 109.259 62.3029 109.259 63.223V65.7074Z" fill="white"/>
<path d="M60.4633 39C62.3036 39 64.0289 39.276 65.6391 39.8281C67.2494 40.3802 68.6296 41.1853 69.7797 42.2435C70.9759 43.3017 71.9191 44.5898 72.6092 46.1081C73.2993 47.5803 73.6443 49.2596 73.6443 51.1458C73.6443 52.6641 73.2533 54.1823 72.4711 55.7005C71.735 57.1727 70.7689 58.3459 69.5727 59.2201C69.1126 59.5421 69.0896 59.8411 69.5037 60.1172C70.8379 60.9913 71.9421 62.2335 72.8162 63.8438C73.6903 65.454 74.1274 67.2713 74.1274 69.2956C74.1274 71.4579 73.7593 73.3902 73.0232 75.0925C72.2871 76.7487 71.298 78.1519 70.0558 79.3021C68.8136 80.4523 67.3414 81.3264 65.6391 81.9245C63.9829 82.4766 62.2116 82.7526 60.3253 82.7526C58.485 82.7526 56.7368 82.4996 55.0805 81.9935C53.4243 81.4874 51.9751 80.7053 50.7329 79.6471C49.4907 78.589 48.5015 77.2548 47.7654 75.6445C47.0293 73.9883 46.6613 72.056 46.6613 69.8477C46.6613 67.7773 47.1443 65.8451 48.1105 64.0508C49.1226 62.2565 50.3648 60.9453 51.837 60.1172C52.2051 59.8872 52.2051 59.6571 51.837 59.4271C50.3648 58.553 49.2606 57.3108 48.5245 55.7005C47.7884 54.0903 47.4204 52.5951 47.4204 51.2148C47.4204 49.4206 47.7654 47.7643 48.4555 46.2461C49.1456 44.7279 50.0658 43.4397 51.2159 42.3815C52.4121 41.3233 53.7923 40.4952 55.3566 39.8971C56.9668 39.299 58.6691 39 60.4633 39ZM66.3292 51.0768C66.3292 49.5586 65.8001 48.2474 64.742 47.1432C63.7298 45.9931 62.3036 45.418 60.4633 45.418C58.8071 45.418 57.4039 45.9701 56.2537 47.0742C55.1035 48.1784 54.5284 49.5356 54.5284 51.1458C54.5284 52.6641 55.0805 53.9983 56.1847 55.1484C57.2889 56.2526 58.7151 56.8047 60.4633 56.8047C62.2116 56.8047 63.6148 56.2526 64.673 55.1484C65.7771 54.0443 66.3292 52.6871 66.3292 51.0768ZM60.3943 62.9466C59.6122 62.9466 58.8301 63.1306 58.048 63.4987C57.3119 63.8208 56.6448 64.2808 56.0467 64.8789C55.4486 65.431 54.9655 66.1211 54.5975 66.9492C54.2294 67.7773 54.0454 68.6745 54.0454 69.6406C54.0454 71.757 54.6205 73.3902 55.7706 74.5404C56.9668 75.6905 58.462 76.2656 60.2563 76.2656C62.0046 76.2656 63.5228 75.6445 64.811 74.4023C66.0992 73.1602 66.7433 71.5039 66.7433 69.4336C66.7433 67.5013 66.1222 65.9371 64.88 64.7409C63.6378 63.5447 62.1426 62.9466 60.3943 62.9466Z" fill="white"/>
<path d="M31.3361 81.2344C31.3361 81.9705 30.968 82.3386 30.2319 82.3386H24.8491C24.113 82.3386 23.745 81.9935 23.745 81.3034V49.9037C23.745 49.5816 23.6529 49.3516 23.4689 49.2136C23.2849 49.0755 23.0088 49.1215 22.6408 49.3516L18.2241 51.8359C16.9819 52.48 16.3608 52.25 16.3608 51.1458V46.9362C16.3608 46.4761 16.4068 46.0851 16.4989 45.763C16.5909 45.441 16.8439 45.1419 17.258 44.8659L24.4351 40.3802C25.0331 39.9662 25.7233 39.7591 26.5054 39.7591H30.0249C30.899 39.7591 31.3361 40.1732 31.3361 41.0013V81.2344Z" fill="white"/>
</svg>
