<svg width="125" height="125" viewBox="0 0 125 125" fill="none" xmlns="http://www.w3.org/2000/svg">
<circle cx="62.5" cy="62.5" r="60.5769" stroke="#97CA3F" stroke-width="3.84615"/>
<path d="M119.231 62.5C119.231 96.0128 92.9143 123.077 60.5769 123.077C28.2395 123.077 1.92308 96.0128 1.92308 62.5C1.92308 28.9872 28.2395 1.92308 60.5769 1.92308C92.9143 1.92308 119.231 28.9872 119.231 62.5Z" stroke="#97CA3F" stroke-width="3.84615"/>
<path fill-rule="evenodd" clip-rule="evenodd" d="M54.0365 39.7135C54.7556 39.7135 55.3385 40.2965 55.3385 41.0156V59.4177L54.5939 59.7705C52.6791 60.6775 49.7373 62.623 47.29 65.4516C44.8504 68.2712 42.9687 71.8867 42.9687 76.1719C42.9687 80.4451 44.84 83.828 47.2484 86.3581C49.6728 88.9049 52.5898 90.5273 54.4866 91.2261L55.3385 91.54V111.877L53.5965 111.252C49.193 109.671 42.665 106.049 37.22 100.275C31.9003 94.6332 27.5758 86.8901 27.3528 76.9771C27.3468 76.9266 27.3438 76.8751 27.3438 76.8229C27.3438 76.7877 27.3452 76.7527 27.3479 76.7182C27.3451 76.5368 27.3438 76.3547 27.3438 76.1719C27.3438 64.2484 31.3423 56.3882 35.9065 51.584C35.9577 51.4605 36.0291 51.3429 36.1208 51.2359C36.2544 51.0801 36.4169 50.9635 36.5935 50.8875C39.6294 47.9242 42.836 46.2634 45.2344 45.6177C45.9288 45.4307 46.6433 45.8421 46.8302 46.5365C47.0172 47.2309 46.6058 47.9454 45.9114 48.1323C44.1283 48.6124 41.6201 49.8494 39.119 52.0909L42.5141 55.001C43.06 55.469 43.1233 56.291 42.6553 56.837C42.1873 57.383 41.3653 57.4462 40.8193 56.9782L37.2763 53.9413C33.453 58.233 30.0871 65.1138 29.9521 75.5208H34.5052C35.2243 75.5208 35.8073 76.1038 35.8073 76.8229C35.8073 77.542 35.2243 78.125 34.5052 78.125H30.0059C30.5152 86.6495 34.323 93.3843 39.0558 98.4257L42.048 95.4334C42.5565 94.925 43.381 94.925 43.8895 95.4334C44.398 95.9419 44.398 96.7664 43.8895 97.2749L40.8995 100.265C44.9073 104.013 49.2976 106.616 52.7344 108.108V93.3273C50.5762 92.3914 47.7614 90.674 45.3622 88.1536C42.6166 85.2692 40.3646 81.2737 40.3646 76.1719C40.3646 71.0821 42.6061 66.8851 45.3207 63.7477C47.737 60.9548 50.5808 58.937 52.7344 57.7919V41.0156C52.7344 40.2965 53.3173 39.7135 54.0365 39.7135Z" fill="#97CA3F"/>
<path fill-rule="evenodd" clip-rule="evenodd" d="M70.9635 39.0625C70.2444 39.0625 69.6615 39.6455 69.6615 40.3646V58.7667L70.4061 59.1194C72.3209 60.0264 75.2627 61.972 77.71 64.8005C80.1496 67.6202 82.0312 71.2356 82.0312 75.5208C82.0312 79.794 80.16 83.1769 77.7515 85.7071C75.3272 88.2539 72.4101 89.8763 70.5134 90.5751L69.6615 90.8889V111.226L71.4035 110.601C75.807 109.02 82.335 105.398 87.78 99.6238C93.0997 93.9821 97.4241 86.2391 97.6472 76.3261C97.6532 76.2755 97.6562 76.2241 97.6562 76.1719C97.6562 76.1366 97.6548 76.1017 97.6521 76.0671C97.6549 75.8857 97.6562 75.7036 97.6562 75.5208C97.6562 63.5974 93.6577 55.7371 89.0935 50.9329C89.0422 50.8095 88.9709 50.6919 88.8792 50.5849C88.7456 50.429 88.5831 50.3125 88.4064 50.2364C85.3706 47.2732 82.164 45.6124 79.7656 44.9666C79.0712 44.7797 78.3567 45.1911 78.1698 45.8854C77.9828 46.5798 78.3942 47.2943 79.0886 47.4813C80.8717 47.9613 83.3799 49.1984 85.881 51.4399L82.4859 54.3499C81.9399 54.8179 81.8767 55.6399 82.3447 56.1859C82.8127 56.7319 83.6347 56.7951 84.1807 56.3272L87.7237 53.2903C91.547 57.582 94.9129 64.4627 95.0479 74.8698H90.4948C89.7757 74.8698 89.1927 75.4528 89.1927 76.1719C89.1927 76.891 89.7757 77.474 90.4948 77.474H94.9941C94.4847 85.9985 90.677 92.7333 85.9442 97.7746L82.952 94.7824C82.4435 94.2739 81.619 94.2739 81.1105 94.7824C80.602 95.2909 80.602 96.1153 81.1105 96.6238L84.1005 99.6138C80.0927 103.362 75.7024 105.965 72.2656 107.457V92.6762C74.4238 91.7403 77.2386 90.0229 79.6378 87.5026C82.3834 84.6182 84.6354 80.6226 84.6354 75.5208C84.6354 70.431 82.3938 66.234 79.6793 63.0966C77.263 60.3038 74.4192 58.286 72.2656 57.1409V40.3646C72.2656 39.6455 71.6827 39.0625 70.9635 39.0625Z" fill="#97CA3F"/>
<path fill-rule="evenodd" clip-rule="evenodd" d="M62.0969 12.079C62.6171 12.5755 62.6363 13.3997 62.1397 13.9199L48.4574 28.2538L48.4467 28.2645C47.8234 28.8877 47.2142 29.9417 46.8204 31.2331C46.43 32.5131 46.2844 33.9198 46.4849 35.1987C46.6838 36.4676 47.2122 37.5624 48.1322 38.3458C49.0495 39.127 50.4912 39.7135 52.7343 39.7135C53.9278 39.7135 55.409 39.111 56.8835 38.1992C58.323 37.309 59.5797 36.2351 60.2772 35.5376C60.7857 35.0291 61.6101 35.0291 62.1186 35.5376C62.6271 36.0461 62.6271 36.8705 62.1186 37.379C61.297 38.2007 59.8844 39.4054 58.2531 40.4141C56.6569 41.4012 54.6659 42.3177 52.7343 42.3177C50.0296 42.3177 47.9394 41.6022 46.4438 40.3285C44.9508 39.0571 44.1853 37.3443 43.9122 35.602C43.6406 33.8699 43.845 32.0621 44.3295 30.4735C44.8087 28.9021 45.595 27.4384 46.594 26.4344L60.256 12.1218C60.7525 11.6016 61.5768 11.5824 62.0969 12.079Z" fill="#97CA3F"/>
<path fill-rule="evenodd" clip-rule="evenodd" d="M60.9282 12.1001C60.4197 12.6086 60.4197 13.433 60.9282 13.9415L75.2511 28.2645C75.8693 28.8827 76.4338 29.8859 76.7654 31.0957C77.0944 32.2963 77.1673 33.6049 76.9028 34.7916C76.6414 35.9646 76.0576 37.0002 75.0711 37.7524C74.0809 38.5073 72.572 39.0625 70.3125 39.0625C69.0448 39.0625 67.5231 38.5657 66.0722 37.8223C64.6322 37.0845 63.415 36.183 62.7696 35.5376C62.2611 35.0291 61.4367 35.0291 60.9282 35.5376C60.4197 36.0461 60.4197 36.8705 60.9282 37.379C61.8019 38.2527 63.2539 39.3044 64.8847 40.1399C66.5046 40.9699 68.4551 41.6667 70.3125 41.6667C73.0009 41.6667 75.1052 41.0012 76.65 39.8233C78.1984 38.6427 79.0713 37.0334 79.4447 35.3581C79.8149 33.6965 79.7006 31.9534 79.2769 30.4074C78.8557 28.8706 78.1018 27.4324 77.0925 26.423L62.7696 12.1001C62.2611 11.5916 61.4367 11.5916 60.9282 12.1001Z" fill="#97CA3F"/>
<path d="M46.224 28.6458L61.1979 13.0208C65.9722 17.3611 75.9115 26.5625 77.474 28.6458C80.7292 36.4583 74.2188 41.0156 70.9635 41.0156C68.3594 41.0156 63.3681 37.5434 61.1979 35.8073C59.8958 37.7604 56.1198 41.5365 51.4323 41.0156C43.6198 39.974 44.7049 32.3351 46.224 28.6458Z" fill="#97CA3F"/>
<path d="M61.45 59.3332C61.6833 58.9332 62.0666 58.7332 62.6 58.7332H66.35C66.75 58.7332 66.9833 58.8665 67.05 59.1332C67.1166 59.3665 67.1 59.5665 67 59.7332L58 77.8332C57.9333 77.9332 57.9 78.0498 57.9 78.1832C57.9 78.3165 58.0333 78.3832 58.3 78.3832H63.3C63.5666 78.3832 63.7333 78.2998 63.8 78.1332C63.8666 77.9332 63.9 77.7332 63.9 77.5332V70.8332C63.9 70.6665 63.9333 70.5332 64 70.4332C64.1 70.2998 64.2666 70.2332 64.5 70.2332H68.6999C68.9666 70.2332 69.15 70.2998 69.25 70.4332C69.35 70.5665 69.4 70.7165 69.4 70.8832V77.4832C69.4 77.8498 69.4333 78.0998 69.5 78.2332C69.6 78.3332 69.7833 78.3832 70.05 78.3832H72.55C72.7166 78.3832 72.85 78.4332 72.95 78.5332C73.0833 78.5998 73.15 78.7498 73.15 78.9832V82.3832C73.15 82.6498 73.0833 82.8332 72.95 82.9332C72.85 82.9998 72.7166 83.0332 72.55 83.0332H70.1C69.9 83.0332 69.7333 83.0832 69.6 83.1832C69.4666 83.2832 69.4 83.4832 69.4 83.7832V88.9832C69.4 89.1498 69.35 89.2998 69.25 89.4332C69.15 89.5332 69 89.5832 68.8 89.5832H64.55C64.2833 89.5832 64.1 89.5332 64 89.4332C63.9333 89.2998 63.9 89.1498 63.9 88.9832V83.7332C63.9 83.2665 63.65 83.0332 63.15 83.0332H52.6C52.3666 83.0332 52.15 82.9665 51.95 82.8332C51.7833 82.6998 51.7 82.4665 51.7 82.1332V80.0832C51.7 79.5165 51.7333 79.0832 51.8 78.7832C51.8666 78.4832 51.9833 78.1832 52.15 77.8832L61.45 59.3332Z" fill="white"/>
</svg>
