<svg width="125" height="125" viewBox="0 0 125 125" fill="none" xmlns="http://www.w3.org/2000/svg">
<circle cx="62.8593" cy="62.1408" r="60.2196" stroke="#97CA3F" stroke-width="3.84239"/>
<path d="M120.114 62.4389C120.114 95.9189 93.8234 122.957 61.5177 122.957C29.2119 122.957 2.9212 95.9189 2.9212 62.4389C2.9212 28.9588 29.2119 1.9212 61.5177 1.9212C93.8234 1.9212 120.114 28.9588 120.114 62.4389Z" stroke="#97CA3F" stroke-width="3.84239"/>
<path fill-rule="evenodd" clip-rule="evenodd" d="M64.9065 25.6936C65.6215 25.6936 66.2011 26.2732 66.2011 26.9882V36.0504C66.2011 36.7654 65.6215 37.345 64.9065 37.345C64.1915 37.345 63.6119 36.7654 63.6119 36.0504V26.9882C63.6119 26.2732 64.1915 25.6936 64.9065 25.6936Z" fill="#97CA3F"/>
<path fill-rule="evenodd" clip-rule="evenodd" d="M87.8301 35.1349C88.3357 35.6405 88.3357 36.4602 87.8301 36.9658C87.2805 37.5154 82.7935 41.5659 80.6604 43.4856C80.129 43.9639 79.3104 43.9209 78.8321 43.3894C78.3538 42.858 78.3969 42.0394 78.9284 41.5611C81.1106 39.5971 85.5132 35.621 85.9993 35.1349C86.5048 34.6294 87.3245 34.6294 87.8301 35.1349Z" fill="#97CA3F"/>
<path fill-rule="evenodd" clip-rule="evenodd" d="M43.6572 29.0458C44.3081 28.7499 45.0756 29.0377 45.3715 29.6886L48.608 36.8089C48.9038 37.4598 48.616 38.2273 47.9651 38.5232C47.3142 38.8191 46.5467 38.5313 46.2508 37.8804L43.0143 30.7601C42.7185 30.1092 43.0063 29.3417 43.6572 29.0458Z" fill="#97CA3F"/>
<path fill-rule="evenodd" clip-rule="evenodd" d="M24.2632 42.592C24.583 41.9525 25.3606 41.6933 26.0001 42.013C26.3671 42.1965 26.9315 42.5814 27.5222 43.0044C28.1453 43.4507 28.8931 44.0097 29.669 44.6011C31.222 45.7849 32.9133 47.1184 33.9975 47.9857C34.5558 48.4324 34.6463 49.2471 34.1997 49.8054C33.753 50.3637 32.9383 50.4542 32.38 50.0076C31.3065 49.1488 29.6319 47.8284 28.0994 46.6603C27.3326 46.0758 26.6078 45.5343 26.0146 45.1095C25.3888 44.6613 24.993 44.4043 24.8422 44.3289C24.2027 44.0091 23.9435 43.2315 24.2632 42.592Z" fill="#97CA3F"/>
<path fill-rule="evenodd" clip-rule="evenodd" d="M54.5436 55.3448C54.6125 56.0564 54.0914 56.6892 53.3798 56.758C46.9622 57.3791 33.6788 62.346 31.2292 77.0432C30.0041 84.3938 32.2911 89.7231 35.6113 93.4457C38.9734 97.2153 43.429 99.3664 46.4683 100.177C47.1592 100.361 47.5699 101.07 47.3856 101.761C47.2014 102.452 46.492 102.863 45.8012 102.679C42.3675 101.763 37.4373 99.3829 33.679 95.1692C29.879 90.9085 27.3112 84.8021 28.6753 76.6175C31.4041 60.2444 46.1704 54.8544 53.1303 54.1809C53.842 54.112 54.4748 54.6331 54.5436 55.3448Z" fill="#97CA3F"/>
<path d="M89.5038 68.4154L83.0308 54.1748C77.2051 56.764 63.4824 62.7191 55.1969 65.8262C46.9115 68.9332 45.2717 76.6145 45.4874 80.0668C45.7032 85.0294 49.1123 94.6957 61.0226 93.66C72.933 92.6244 74.1844 81.5771 73.3214 76.183L89.5038 68.4154Z" fill="#97CA3F"/>
<path fill-rule="evenodd" clip-rule="evenodd" d="M82.5051 52.9106C83.1546 52.622 83.9153 52.9109 84.2094 53.5579L90.6824 67.7985C90.9739 68.4398 90.6992 69.1965 90.0641 69.5013L74.7263 76.8635C75.0205 79.7005 74.7727 83.5752 73.1314 87.0303C71.2503 90.9902 67.5701 94.3091 61.1348 94.8687C54.7584 95.4231 50.5085 93.0938 47.8658 89.8492C45.2847 86.6801 44.3138 82.7406 44.1946 80.054C43.9618 76.2491 45.7515 67.9044 54.7424 64.5329C62.9881 61.4407 76.6795 55.4998 82.5051 52.9106ZM82.3829 55.7966C76.0436 58.5963 63.4598 64.0291 55.6515 66.9572C48.0813 69.796 46.5855 76.7995 46.7796 79.9049L46.7809 79.9294C46.8798 82.2052 47.7223 85.573 49.8734 88.2141C51.9669 90.7844 55.3766 92.7704 60.9105 92.2892C66.3856 91.8131 69.2862 89.0905 70.7927 85.9193C72.3436 82.6544 72.4461 78.8253 72.043 76.3064C71.9525 75.7406 72.2446 75.1826 72.7612 74.9347L87.8007 67.7157L82.3829 55.7966Z" fill="#97CA3F"/>
<path d="M87.0684 50.9322C89.6576 41.6111 100.662 47.0484 105.84 50.9322C104.545 61.9362 98.0725 65.8202 94.1887 64.5256C91.0816 63.49 92.031 58.9157 92.8941 56.758C90.5206 56.3265 86.0327 54.5572 87.0684 50.9322Z" fill="#97CA3F"/>
<path d="M18.9386 81.9124C18.9449 81.9535 18.9482 81.9857 18.9482 82.0087C18.9386 81.9124 18.9324 81.8712 18.9386 81.9124C15.2181 78.7117 9.05116 49.9346 34.4834 30.2247C55.197 14.1716 79.7944 23.5359 89.5039 30.2247C92.7404 32.4543 95.5885 35.662 96.6242 36.6977C97.6599 37.7333 91.0142 41.013 87.562 42.5234C84.3255 36.2661 70.965 22.8677 46.1348 30.2247C21.4859 37.5279 17.4549 66.7805 18.9386 81.9124Z" fill="#97CA3F"/>
<path fill-rule="evenodd" clip-rule="evenodd" d="M66.0445 22.3393C56.2239 21.1842 45.0759 22.8343 34.8799 30.7362C17.0118 44.584 16.6534 63.4091 18.0558 73.9589C18.262 67.467 19.4119 59.9528 22.133 52.8997C26.0852 42.6556 33.3789 33.3289 45.9509 29.6039C70.4433 22.347 84.0376 35.0178 87.8451 41.6899C89.517 40.9408 91.7129 39.8802 93.4514 38.8724C94.4256 38.3077 95.2189 37.7806 95.6983 37.3506C95.8604 37.2051 95.9628 37.0914 96.0234 37.0105C95.867 36.8507 95.6833 36.6588 95.4749 36.4413C94.1324 35.0393 91.7685 32.5707 89.1366 30.7576C84.3583 27.4659 75.8802 23.4961 66.0445 22.3393Z" fill="#97CA3F"/>
<path fill-rule="evenodd" clip-rule="evenodd" d="M64.9065 25.6936C65.6215 25.6936 66.2011 26.2732 66.2011 26.9882V36.0504C66.2011 36.7654 65.6215 37.345 64.9065 37.345C64.1915 37.345 63.6119 36.7654 63.6119 36.0504V26.9882C63.6119 26.2732 64.1915 25.6936 64.9065 25.6936Z" fill="white"/>
<path fill-rule="evenodd" clip-rule="evenodd" d="M87.8301 35.1349C88.3357 35.6405 88.3357 36.4602 87.8301 36.9658C87.2805 37.5154 82.7935 41.5659 80.6604 43.4856C80.129 43.9639 79.3104 43.9209 78.8321 43.3894C78.3538 42.858 78.3969 42.0394 78.9284 41.5611C81.1106 39.5971 85.5132 35.621 85.9993 35.1349C86.5048 34.6294 87.3245 34.6294 87.8301 35.1349Z" fill="white"/>
<path fill-rule="evenodd" clip-rule="evenodd" d="M43.6572 29.0458C44.3081 28.7499 45.0756 29.0377 45.3715 29.6886L48.608 36.8089C48.9038 37.4598 48.616 38.2273 47.9651 38.5232C47.3142 38.8191 46.5467 38.5313 46.2508 37.8804L43.0143 30.7601C42.7185 30.1092 43.0063 29.3417 43.6572 29.0458Z" fill="white"/>
<path fill-rule="evenodd" clip-rule="evenodd" d="M24.2632 42.592C24.583 41.9525 25.3606 41.6933 26.0001 42.013C26.3671 42.1965 26.9315 42.5814 27.5222 43.0044C28.1453 43.4507 28.8931 44.0097 29.669 44.6011C31.222 45.7849 32.9133 47.1184 33.9975 47.9857C34.5558 48.4324 34.6463 49.2471 34.1997 49.8054C33.753 50.3637 32.9383 50.4542 32.38 50.0076C31.3065 49.1488 29.6319 47.8284 28.0994 46.6603C27.3326 46.0758 26.6078 45.5343 26.0146 45.1095C25.3888 44.6613 24.993 44.4043 24.8422 44.3289C24.2027 44.0091 23.9435 43.2315 24.2632 42.592Z" fill="white"/>
<path d="M18.9386 81.9124C18.9449 81.9535 18.9482 81.9857 18.9482 82.0087C18.9386 81.9124 18.9324 81.8712 18.9386 81.9124C15.2181 78.7117 9.05116 49.9346 34.4834 30.2247C55.197 14.1716 79.7944 23.5359 89.5039 30.2247C92.7404 32.4543 95.5885 35.662 96.6242 36.6977C97.6599 37.7333 91.0142 41.013 87.562 42.5234C84.3255 36.2661 70.965 22.8677 46.1348 30.2247C21.4859 37.5279 17.4549 66.7805 18.9386 81.9124Z" fill="white"/>
<path fill-rule="evenodd" clip-rule="evenodd" d="M66.0445 22.3393C56.2239 21.1842 45.0759 22.8343 34.8799 30.7362C17.0118 44.584 16.6534 63.4091 18.0558 73.9589C18.262 67.467 19.4119 59.9528 22.133 52.8997C26.0852 42.6556 33.3789 33.3289 45.9509 29.6039C70.4433 22.347 84.0376 35.0178 87.8451 41.6899C89.517 40.9408 91.7129 39.8802 93.4514 38.8724C94.4256 38.3077 95.2189 37.7806 95.6983 37.3506C95.8604 37.2051 95.9628 37.0914 96.0234 37.0105C95.867 36.8507 95.6833 36.6588 95.4749 36.4413C94.1324 35.0393 91.7685 32.5707 89.1366 30.7576C84.3583 27.4659 75.8802 23.4961 66.0445 22.3393Z" fill="white"/>
</svg>
