<svg width="125" height="125" viewBox="0 0 125 125" fill="none" xmlns="http://www.w3.org/2000/svg">
<circle cx="62.5" cy="62.5" r="60.5769" stroke="#97CA3F" stroke-width="3.84615"/>
<path d="M119.231 62.5C119.231 96.0128 92.9143 123.077 60.5769 123.077C28.2395 123.077 1.92308 96.0128 1.92308 62.5C1.92308 28.9872 28.2395 1.92308 60.5769 1.92308C92.9143 1.92308 119.231 28.9872 119.231 62.5Z" stroke="#97CA3F" stroke-width="3.84615"/>
<path fill-rule="evenodd" clip-rule="evenodd" d="M27.5401 43.165C32.668 38.0371 39.623 35.1562 46.875 35.1562C48.3132 35.1562 49.4792 36.3222 49.4792 37.7604C49.4792 39.1987 48.3132 40.3646 46.875 40.3646C41.0043 40.3646 35.3741 42.6967 31.2229 46.8479C27.0717 50.9991 24.7396 56.6293 24.7396 62.5C24.7396 68.3707 27.0717 74.0009 31.2229 78.1521C35.3741 82.3033 41.0043 84.6354 46.875 84.6354C48.3132 84.6354 49.4792 85.8013 49.4792 87.2396C49.4792 88.6778 48.3132 89.8437 46.875 89.8437C39.623 89.8437 32.668 86.9629 27.5401 81.835C22.4121 76.707 19.5312 69.752 19.5312 62.5C19.5312 55.248 22.4121 48.293 27.5401 43.165ZM77.0192 43.165C82.1472 38.0371 89.1022 35.1562 96.3542 35.1562C97.7924 35.1562 98.9583 36.3222 98.9583 37.7604C98.9583 39.1987 97.7924 40.3646 96.3542 40.3646C90.4835 40.3646 84.8533 42.6967 80.7021 46.8479C77.1694 50.3805 74.9541 54.9843 74.3724 59.8958H96.3542C97.7924 59.8958 98.9583 61.0618 98.9583 62.5C98.9583 63.9382 97.7924 65.1042 96.3542 65.1042H74.3724C74.9541 70.0157 77.1694 74.6195 80.7021 78.1521C84.8533 82.3033 90.4835 84.6354 96.3542 84.6354C97.7924 84.6354 98.9583 85.8013 98.9583 87.2396C98.9583 88.6778 97.7924 89.8437 96.3542 89.8437C89.1022 89.8437 82.1472 86.9629 77.0192 81.835C71.8913 76.707 69.0104 69.752 69.0104 62.5C69.0104 55.248 71.8913 48.293 77.0192 43.165Z" fill="white"/>
<path fill-rule="evenodd" clip-rule="evenodd" d="M26.8034 42.4285C32.1267 37.1052 39.3466 34.1146 46.8749 34.1146C48.8885 34.1146 50.5208 35.7469 50.5208 37.7605C50.5208 39.774 48.8885 41.4063 46.8749 41.4063C41.2805 41.4063 35.9152 43.6287 31.9594 47.5845C28.0035 51.5404 25.7812 56.9056 25.7812 62.5C25.7812 68.0945 28.0035 73.4597 31.9594 77.4156C35.9152 81.3714 41.2805 83.5938 46.8749 83.5938C48.8885 83.5938 50.5208 85.2261 50.5208 87.2396C50.5208 89.2532 48.8885 90.8855 46.8749 90.8855C39.3466 90.8855 32.1267 87.8949 26.8034 82.5716C21.4801 77.2483 18.4895 70.0283 18.4895 62.5C18.4895 54.9718 21.4801 47.7518 26.8034 42.4285ZM46.8749 36.198C39.8992 36.198 33.2091 38.9691 28.2765 43.9017C23.3439 48.8343 20.5728 55.5243 20.5728 62.5C20.5728 69.4758 23.3439 76.1658 28.2765 81.0984C33.2091 86.031 39.8992 88.8021 46.8749 88.8021C47.7379 88.8021 48.4374 88.1026 48.4374 87.2396C48.4374 86.3767 47.7379 85.6771 46.8749 85.6771C40.728 85.6771 34.8328 83.2353 30.4862 78.8887C26.1397 74.5422 23.6978 68.647 23.6978 62.5C23.6978 56.3531 26.1397 50.4579 30.4862 46.1114C34.8328 41.7648 40.728 39.323 46.8749 39.323C47.7379 39.323 48.4374 38.6234 48.4374 37.7605C48.4374 36.8975 47.7379 36.198 46.8749 36.198ZM76.2826 42.4285C81.6059 37.1052 88.8258 34.1146 96.3541 34.1146C98.3676 34.1146 99.9999 35.7469 99.9999 37.7605C99.9999 39.774 98.3676 41.4063 96.3541 41.4063C90.7597 41.4063 85.3944 43.6287 81.4386 47.5845C78.3529 50.6702 76.3219 54.6135 75.5777 58.8542H96.3541C98.3676 58.8542 99.9999 60.4865 99.9999 62.5C99.9999 64.5136 98.3676 66.1459 96.3541 66.1459H75.5777C76.3219 70.3866 78.3529 74.3299 81.4386 77.4156C85.3944 81.3714 90.7597 83.5938 96.3541 83.5938C98.3676 83.5938 99.9999 85.2261 99.9999 87.2396C99.9999 89.2532 98.3676 90.8855 96.3541 90.8855C88.8258 90.8855 81.6059 87.8949 76.2826 82.5716C70.9593 77.2483 67.9687 70.0283 67.9687 62.5C67.9687 54.9718 70.9593 47.7518 76.2826 42.4285ZM96.3541 36.198C89.3783 36.198 82.6883 38.9691 77.7557 43.9017C72.8231 48.8343 70.052 55.5243 70.052 62.5C70.052 69.4758 72.8231 76.1658 77.7557 81.0984C82.6883 86.031 89.3783 88.8021 96.3541 88.8021C97.217 88.8021 97.9166 88.1026 97.9166 87.2396C97.9166 86.3767 97.217 85.6771 96.3541 85.6771C90.2072 85.6771 84.312 83.2353 79.9654 78.8887C76.2665 75.1898 73.947 70.3694 73.3379 65.2267C73.3029 64.9312 73.396 64.6348 73.5936 64.4123C73.7913 64.1898 74.0747 64.0625 74.3723 64.0625H96.3541C97.217 64.0625 97.9166 63.363 97.9166 62.5C97.9166 61.6371 97.217 60.9375 96.3541 60.9375H74.3723C74.0747 60.9375 73.7913 60.8102 73.5936 60.5878C73.396 60.3653 73.3029 60.0689 73.3379 59.7734C73.947 54.6307 76.2665 49.8103 79.9654 46.1114C84.312 41.7648 90.2072 39.323 96.3541 39.323C97.217 39.323 97.9166 38.6234 97.9166 37.7605C97.9166 36.8975 97.217 36.198 96.3541 36.198Z" fill="white"/>
</svg>
