<svg width="0" height="0" class="hidden">
  <symbol fill="none" xmlns="http://www.w3.org/2000/svg" viewBox="0 0 56 21" id="full-time">
    <g clip-path="url(#clip0_213_18904)">
      <path d="M45.0759 10.4934C45.0759 13.7364 45.0524 16.9794 45.0936 20.2209C45.1024 20.945 44.8257 21.0357 44.2311 20.9718C39.8305 20.4975 36.023 16.6686 35.293 12.1974C34.4643 7.12545 37.5963 2.19477 41.9896 0.611184C42.752 0.336101 43.5423 0.174025 44.34 0.0431748C44.9199 -0.0519892 45.0936 0.168077 45.0892 0.764339C45.0612 4.00735 45.0759 7.25035 45.0759 10.4919V10.4934ZM40.7548 13.6531C41.1462 13.6531 41.5392 13.6576 41.9307 13.6531C42.2 13.6501 42.5003 13.6799 42.5091 13.271C42.518 12.8784 42.2516 12.8502 41.9616 12.8516C41.6673 12.8531 41.3729 12.8665 41.08 12.8472C40.8475 12.8323 40.5237 12.9736 40.4015 12.7327C40.2676 12.4695 40.5958 12.3223 40.7415 12.1439C41.2375 11.5327 41.7747 10.9543 42.1691 10.2644C42.6754 9.37965 42.4429 7.95962 41.7129 7.60573C40.9932 7.25779 40.2323 7.36039 39.4831 7.51057C39.2594 7.55518 39.1814 7.74997 39.2138 7.97152C39.2476 8.20199 39.4257 8.21389 39.6038 8.20646C39.9703 8.19159 40.3368 8.15887 40.7047 8.15441C41.2846 8.14698 41.5186 8.45626 41.5554 9.03022C41.5966 9.68298 41.3067 10.1707 40.927 10.6391C40.4015 11.2904 39.8746 11.9402 39.3521 12.5929C39.1461 12.8516 38.9842 13.1535 39.1314 13.4762C39.2565 13.7498 39.5641 13.6412 39.7981 13.6501C40.116 13.662 40.4354 13.6531 40.7533 13.6531H40.7548Z" fill="white"></path>
      <path d="M46.0578 10.4696C46.0578 7.30238 46.0578 4.1352 46.0578 0.966542C46.0578 -0.0192967 46.1416 -0.101078 47.1057 0.0699194C50.3789 0.648338 52.9133 2.3256 54.6059 5.24148C56.7812 8.98856 56.3706 13.7378 53.6684 17.1221C52.2451 18.9035 50.4672 20.0766 48.3155 20.7041C47.8268 20.8469 47.3088 20.8841 46.804 20.9748C46.2403 21.0759 46.0386 20.8811 46.043 20.2699C46.071 17.0031 46.0563 13.7378 46.0563 10.471L46.0578 10.4696ZM50.9882 7.47486C50.7792 7.45553 50.5894 7.46891 50.4658 7.66668C49.6607 8.95882 48.8306 10.2346 48.0653 11.5506C47.8224 11.9684 47.8931 12.3818 48.5598 12.3401C48.9498 12.3148 49.3443 12.3639 49.7313 12.3297C50.3554 12.2747 50.8028 12.3609 50.6792 13.1669C50.6277 13.5044 50.8205 13.6561 51.159 13.6516C51.5196 13.6471 51.5313 13.4137 51.524 13.1505C51.5122 12.7609 51.4636 12.3877 51.9979 12.239C52.198 12.184 52.1848 11.7453 51.9846 11.6874C51.3444 11.4985 51.5387 11.0063 51.5299 10.6004C51.5107 9.73798 51.5093 8.87407 51.5299 8.01016C51.5402 7.5953 51.4077 7.39903 50.9882 7.47486Z" fill="white"></path>
      <path d="M18.9488 10.1246C19.8112 8.99899 20.7134 7.90163 21.52 6.73588C21.9586 6.10244 22.4531 5.9478 23.1963 6.14854C22.8932 6.81914 22.3663 7.30091 21.9542 7.85851C21.442 8.55143 20.9121 9.23393 20.347 9.88521C20.0305 10.2495 20.0143 10.4993 20.3352 10.8829C21.439 12.2019 22.5031 13.5535 23.6364 14.9586C22.8122 15.14 22.1985 15.1415 21.6716 14.3966C20.8209 13.1922 19.8672 12.0621 18.9576 10.9023C18.6632 11.0153 18.778 11.2472 18.7751 11.4168C18.7633 12.4561 18.7501 13.4955 18.778 14.5334C18.7898 14.9824 18.6073 15.0806 18.2129 15.0597C17.8802 15.0419 17.5991 15.091 17.6021 14.5824C17.6212 11.9104 17.6197 9.23839 17.6021 6.56637C17.5991 6.08757 17.839 6.06973 18.1982 6.06378C18.5808 6.05783 18.7883 6.12921 18.778 6.58718C18.753 7.74699 18.7692 8.9068 18.7692 10.0681C18.8281 10.0874 18.8869 10.1068 18.9473 10.1276L18.9488 10.1246Z" fill="#101010"></path>
      <path d="M0.00857617 10.5053C0.00857617 9.24583 0.0188787 7.98491 0.00268902 6.72548C-0.00319812 6.30467 0.0232941 6.04 0.573742 6.05189C1.08151 6.06379 1.18306 6.25412 1.18012 6.71358C1.16246 8.88748 1.19631 11.0629 1.15657 13.2368C1.1448 13.8702 1.34201 14.0442 1.94103 14.004C2.69606 13.9535 3.45844 14.0115 4.21641 13.9847C4.64323 13.9698 4.68739 14.1929 4.69327 14.5334C4.70063 14.8992 4.60055 15.0672 4.19728 15.0598C2.97423 15.0375 1.7497 15.0345 0.526645 15.0598C0.0954116 15.0687 -0.00466991 14.9125 0.00121724 14.5081C0.0218222 13.1743 0.00857617 11.8391 0.00857617 10.5053Z" fill="#101010"></path>
      <path d="M9.59695 10.5915C9.59695 9.28299 9.61166 7.97449 9.58812 6.66598C9.58076 6.22585 9.69703 6.05783 10.1577 6.05634C10.6316 6.05634 10.7965 6.19165 10.792 6.68829C10.7714 9.28002 10.7729 11.8717 10.792 14.465C10.795 14.917 10.6625 15.0642 10.2107 15.0642C9.7456 15.0642 9.57193 14.9452 9.58517 14.4427C9.62049 13.1594 9.59695 11.8762 9.59695 10.5915Z" fill="#101010"></path>
      <path d="M28.1401 10.4978C28.1401 9.21015 28.1593 7.92246 28.1298 6.63626C28.1195 6.16044 28.2976 6.06082 28.7274 6.05636C29.1866 6.0519 29.3102 6.21397 29.3072 6.66005C29.2896 9.25922 29.2837 11.8584 29.3117 14.4575C29.3175 14.9839 29.1115 15.0479 28.6685 15.0657C28.1519 15.0865 28.1298 14.8293 28.1342 14.4338C28.1504 13.1223 28.1401 11.8093 28.1401 10.4978Z" fill="#101010"></path>
      <path d="M50.7706 8.53803C50.7706 9.48075 50.7412 10.1915 50.7809 10.8993C50.8118 11.4346 50.6587 11.7052 50.0936 11.613C49.7462 11.555 49.2709 11.8093 49.0766 11.4643C48.9059 11.161 49.3076 10.8591 49.4695 10.5722C49.8257 9.93872 50.148 9.27852 50.7706 8.53952V8.53803Z" fill="white"></path>
    </g>
    <defs>
      <clipPath id="clip0_213_18904">
        <rect width="56" height="21" fill="white"></rect>
      </clipPath>
    </defs>
  </symbol>
  <symbol fill="none" xmlns="http://www.w3.org/2000/svg" viewBox="0 0 43 27" id="pills">
    <path d="M42.9998 15.002C42.9998 15.6021 42.6146 16.585 42.5437 16.8078C41.0494 21.5264 37.8601 24.5584 33.0035 25.9123C29.1121 26.9978 25.5146 26.2229 22.161 24.1583C21.6421 23.8392 21.3049 23.8021 20.8068 24.1667C19.2761 25.2826 17.467 25.9663 15.6493 26.2061C13.1535 26.5353 10.6197 26.255 8.23988 25.2455C5.6888 24.1633 3.61853 22.5224 2.1415 20.2231C-2.78771 12.5536 1.17468 2.7586 10.1528 0.445761C14.0045 -0.546903 17.6158 0.146949 20.9434 2.24201C21.4259 2.54589 21.7321 2.59147 22.2267 2.26227C23.5412 1.38271 25.0044 0.813789 26.5575 0.435632C27.9412 0.0996792 29.3231 0.0743561 30.7326 0.184089C37.1475 0.68211 41.2085 5.27234 42.4382 9.26325C42.6008 9.79166 42.9998 11.4015 42.9998 12.0016V14.4019V15.002ZM30.6098 24.349C30.724 24.5415 30.8658 24.5398 31.0249 24.4014L31.0526 24.4672L31.1218 24.4503C33.0641 24.317 34.7988 23.5606 36.3173 22.4718C40.278 19.6339 41.9539 15.724 40.9923 11.046C40.0117 6.27006 36.8656 3.29714 31.9727 2.15422C31.0123 1.97752 30.532 2.34386 30.532 3.25324C30.532 9.95372 30.5303 16.6559 30.5355 23.3564C30.5355 23.6873 30.4594 24.0283 30.6116 24.3507L30.6098 24.349ZM28.1781 24.4047C28.3407 24.5381 28.4825 24.5466 28.5915 24.3423C28.6174 24.0671 28.6658 23.7902 28.6658 23.5151C28.6693 16.6424 28.6693 9.76971 28.6693 2.89703C28.6693 1.9145 28.6658 1.9145 27.6108 2.10358C27.4915 2.08501 27.3739 2.06812 27.322 2.215C27.2822 2.19812 27.2424 2.18292 27.2044 2.16604C26.2151 2.33486 25.2725 2.66575 24.3817 3.09793C18.9959 5.7062 16.3151 12.1011 18.9475 17.8089C20.0233 20.1403 21.6542 21.9501 24.0652 23.1403C25.3676 23.7835 26.6544 24.2883 28.0916 24.447L28.1539 24.4621L28.1781 24.4031V24.4047ZM11.8806 1.92125C9.3883 2.28084 7.23328 3.30389 5.3965 4.99378C4.93644 5.41583 4.84824 5.65218 5.43628 6.0641C7.09319 7.22728 8.69994 8.45967 10.3292 9.66167C12.1902 11.0325 14.0546 12.3982 15.9485 13.7893C16.3463 12.6245 16.0678 11.5305 16.3774 10.4467C17.0398 8.12371 18.0499 6.03203 19.7673 4.29318C20.1513 3.9032 20.0561 3.75126 19.6238 3.49803C18.2384 2.6877 16.7458 2.19136 15.1633 1.92463C14.0685 1.81321 12.9736 1.81152 11.8788 1.92125H11.8806ZM1.97892 11.5102C1.81461 12.6413 1.79386 13.7708 1.99794 14.9002C2.08788 15.6953 2.33348 16.4567 2.61366 17.1961C5.08519 23.7126 13.3247 26.5133 19.4318 22.9377C19.8901 22.6693 20.0786 22.4937 19.6117 22.0193C18.2142 20.5995 17.2577 18.913 16.7026 17.0205C16.5901 16.6373 16.3843 16.3824 16.0782 16.1545C12.14 13.2356 8.19664 10.3218 4.27576 7.3809C3.75516 6.99093 3.55973 7.17663 3.31413 7.62907C2.65171 8.85302 2.15879 10.1293 1.97892 11.5102Z" fill="#F5FAF4"></path>
  </symbol>
  <symbol fill="none" xmlns="http://www.w3.org/2000/svg" viewBox="0 0 14 24" id="arrow-left">
    <path d="M0.93924 10.9393C0.353453 11.5251 0.353453 12.4749 0.93924 13.0607L10.4852 22.6066C11.071 23.1924 12.0207 23.1924 12.6065 22.6066C13.1923 22.0208 13.1923 21.0711 12.6065 20.4853L4.12122 12L12.6065 3.51472C13.1923 2.92893 13.1923 1.97919 12.6065 1.3934C12.0207 0.807612 11.071 0.807612 10.4852 1.3934L0.93924 10.9393ZM2 10.5L1.9999 10.5L1.9999 13.5L2 13.5L2 10.5Z" fill="white"></path>
  </symbol>
  <symbol fill="none" xmlns="http://www.w3.org/2000/svg" viewBox="0 0 14 24" id="arrow-right">
    <path d="M13.0608 10.9393C13.6465 11.5251 13.6465 12.4749 13.0608 13.0607L3.51482 22.6066C2.92903 23.1924 1.97929 23.1924 1.3935 22.6066C0.807713 22.0208 0.807713 21.0711 1.3935 20.4853L9.87878 12L1.3935 3.51472C0.807711 2.92893 0.807711 1.97919 1.3935 1.3934C1.97928 0.807613 2.92903 0.807613 3.51482 1.3934L13.0608 10.9393ZM12 10.5L12.0001 10.5L12.0001 13.5L12 13.5L12 10.5Z" fill="white"></path>
  </symbol>
</svg>